# xmcd
#
# Track frame offsets: 
#        150
#        10588
#        24756
#        36435
#        49165
#        62338
#        73038
#        87384
#        103359
#        114074
#        125781
#        137231
#        151985
#        165559
#        178123
#        192658
#        209150
#        221165
#        233269
#        247066
#        257787
#        275075
#
# Disc length: 3940 seconds
#
# Revision: 0
# Processed by: cddbd v1.5.2PL0 Copyright (c) Steve Scherf et al.
# Submitted via: ExactAudioCopy v0.99pb3
#
DISCID=480f6216
DTITLE=Various Artist - The Complete Motown Singles Volume 8 [CD41)
DYEAR=1968
DGENRE=R&B/Soul
TTITLE0=Smokey Robinson and The Miracles - Special Occasion
TTITLE1=Smokey Robinson and The Miracles - Give Her Up
TTITLE2=Paul Peterson - A Little Bit For Sandy
TTITLE3=Paul Peterson - Your Love's Got Me Burning Alive
TTITLE4=Gladys Knight and The Pips - I Wish It Would Rain
TTITLE5=Gladys Knight and The Pips - It's Summer
TTITLE6=Billy Eckstine - For Love Of Ivy
TTITLE7=Billy Eckstine - A Woman
TTITLE8=Barbara Randolph - Can I Get A Witness
TTITLE9=Marvin Gaye - Chained
TTITLE10=The Ones - Don't Let Me Lose This Dream
TTITLE11=The Ones - I've Been Good To You
TTITLE12=The Monitors - Step By Step (Hand In Hand)
TTITLE13=The Monitors - Time Is Passin' By
TTITLE14=Eivets Rednow - Alfie
TTITLE15=Eivets Rednow - More Than A Dream
TTITLE16=The Marvelettes - Destination: Anywhere
TTITLE17=The Marvelettes - What's Easy For Two Is Hard For One
TTITLE18=The Detriot Wheels - Think (About The Good Things)
TTITLE19=The Detroit Wheels - For The Love Of A Stranger
TTITLE20=Marvin Gaye - His Eye Is On The Sparrow
TTITLE21=Gladys Knight and The Pips - Just A Closer Walk With Thee
EXTD=
EXTT0=
EXTT1=
EXTT2=
EXTT3=
EXTT4=
EXTT5=
EXTT6=
EXTT7=
EXTT8=
EXTT9=
EXTT10=
EXTT11=
EXTT12=
EXTT13=
EXTT14=
EXTT15=
EXTT16=
EXTT17=
EXTT18=
EXTT19=
EXTT20=
EXTT21=
PLAYORDER=
